# File created by Blade
# Date/Time:  Wed Jan 21 17:34:04 2015
# Frame Rate: 120.000 fps
#------------------------------------------------------
:FULLY-SPECIFIED
:DEGREES
305
root 21.529085 12.763065 -17.506093 -174.753813 -3.965688 -178.433204
Spine 73.128247 6.572691 1.885147
Head 0.147741 -1.035419 8.420323
LeftShoulder 13.171843 -33.134987 0.375160
LeftArm 2.946235 -1.832164 -63.761250
LeftForeArm -6.885119 -0.000000 36.411544
LeftHand -0.912917 -0.000000 16.285565
LeftHandThumb1 -26.253704 0.000000 33.147579
RightShoulder 5.820225 2.857978 -3.453050
RightArm 41.471664 -7.626645 39.030437
RightForeArm -48.369813 -0.000000 58.649290
RightHand -13.734301 -0.000000 -21.199266
RightHandThumb1 -24.326973 -0.000000 -32.862282
LeftUpLeg -94.641828 -0.257101 -13.371612
LeftLeg 146.070177 -0.000000 -0.000000
LeftFoot -54.666917 24.185555 -18.135580
LeftToeBase 4.426755 -0.000000 -0.000000
RightUpLeg -95.671564 2.407819 18.712270
RightLeg 146.481445 -0.000000 -0.000000
RightFoot -53.798203 -33.884951 27.125559
RightToeBase 7.909608 -0.000000 -0.000000
306
root 21.507909 12.736979 -17.499654 -174.935944 -3.902613 -178.353527
Spine 73.181949 6.527166 1.806453
Head 0.111005 -0.874299 8.221403
LeftShoulder 13.095132 -33.204040 0.292558
LeftArm 1.863320 -3.207854 -64.542713
LeftForeArm -5.558901 -0.000000 37.143494
LeftHand -0.747772 -0.000000 17.592035
LeftHandThumb1 -26.253704 0.000000 33.147579
RightShoulder 5.915992 3.084071 -3.476036
RightArm 41.407497 -7.927010 38.829752
RightForeArm -48.366564 -0.000000 58.619820
RightHand -13.874277 -0.000000 -21.200068
RightHandThumb1 -24.326973 -0.000000 -32.862282
LeftUpLeg -94.533487 -0.274271 -13.462843
LeftLeg 146.147840 -0.000000 -0.000000
LeftFoot -54.840649 24.306267 -18.297147
LeftToeBase 4.577423 -0.000000 -0.000000
RightUpLeg -95.604534 2.361004 18.655274
RightLeg 146.564404 -0.000000 -0.000000
RightFoot -53.740791 -33.581815 27.151864
RightToeBase 7.726396 -0.000000 -0.000000
307
root 21.491000 12.708935 -17.491748 -175.097475 -3.789351 -178.248770
Spine 73.210741 6.594773 1.806841
Head 0.100572 -0.835569 8.140147
LeftShoulder 13.088627 -33.195335 0.172562
LeftArm 0.955198 -4.349117 -65.239922
LeftForeArm -4.994503 0.000000 37.603071
LeftHand -0.677106 -0.000000 19.651901
LeftHandThumb1 -26.253704 0.000000 33.147579
RightShoulder 5.939911 2.981852 -3.436249
RightArm 41.553545 -7.966271 38.485407
RightForeArm -48.250320 0.000000 58.574594
RightHand -13.896459 -0.000000 -21.281393
RightHandThumb1 -24.326973 -0.000000 -32.862282
LeftUpLeg -94.488426 -0.221088 -13.518677
LeftLeg 146.246613 -0.000000 -0.000000
LeftFoot -54.991799 24.351263 -18.490386
LeftToeBase 4.637710 -0.000000 -0.000000
RightUpLeg -95.539013 2.401581 18.630011
RightLeg 146.637610 -0.000000 -0.000000
RightFoot -53.565312 -33.518038 26.964920
RightToeBase 7.621001 -0.000000 -0.000000
308
root 21.484928 12.683264 -17.473533 -175.215529 -3.686406 -178.042448
Spine 73.203794 6.666952 1.908751
Head 0.042939 -0.691180 8.052336
LeftShoulder 13.066860 -33.136102 0.080074
LeftArm 0.205000 -5.342083 -65.893941
LeftForeArm -4.600674 0.000000 37.776432
LeftHand -0.701498 -0.000000 21.755131
LeftHandThumb1 -26.253704 0.000000 33.147579
RightShoulder 5.948475 2.943402 -3.401002
RightArm 41.674542 -8.029330 38.147584
RightForeArm -48.057366 -0.000000 58.524684
RightHand -13.874207 -0.000000 -21.236529
RightHandThumb1 -24.326973 -0.000000 -32.862282
LeftUpLeg -94.504761 -0.175621 -13.388675
LeftLeg 146.327062 -0.000000 -0.000000
LeftFoot -55.110971 24.503350 -18.490806
LeftToeBase 4.668820 -0.000000 -0.000000
RightUpLeg -95.496102 2.499153 18.737961
RightLeg 146.642071 -0.000000 -0.000000
RightFoot -53.459401 -33.471770 26.852997
RightToeBase 7.813372 -0.000000 -0.000000
309
root 21.476067 12.659317 -17.458209 -175.346606 -3.615666 -177.838807
Spine 73.211035 6.695082 2.012742
Head 0.009116 -0.586355 7.944076
LeftShoulder 13.119459 -33.291703 -0.115732
LeftArm -0.686941 -6.270190 -66.440445
LeftForeArm -4.489025 -0.000000 37.709889
LeftHand -0.540084 -0.000000 23.578513
LeftHandThumb1 -26.253704 0.000000 33.147579
RightShoulder 5.957246 2.955302 -3.377845
RightArm 41.774593 -8.115259 37.847464
RightForeArm -47.843462 -0.000000 58.425650
RightHand -13.817503 -0.000000 -21.126058
RightHandThumb1 -24.326973 -0.000000 -32.862282
LeftUpLeg -94.502710 -0.164872 -13.249766
LeftLeg 146.403202 -0.000000 -0.000000
LeftFoot -55.293229 24.575911 -18.600053
LeftToeBase 4.785309 -0.000000 -0.000000
RightUpLeg -95.474596 2.519485 18.823925
RightLeg 146.670884 -0.000000 -0.000000
RightFoot -53.314430 -33.423192 26.690550
RightToeBase 7.875694 -0.000000 -0.000000
310
root 21.466541 12.634714 -17.442104 -175.508221 -3.566352 -177.670554
Spine 73.252103 6.686898 2.011742
Head -0.039046 -0.478672 7.858657
LeftShoulder 13.006033 -33.150641 -0.194814
LeftArm -1.197787 -7.065366 -66.873021
LeftForeArm -4.659945 0.000000 37.454110
LeftHand -0.969427 -0.000000 24.550892
LeftHandThumb1 -26.253704 0.000000 33.147579
RightShoulder 6.025910 2.961694 -3.353631
RightArm 41.861745 -8.213191 37.513460
RightForeArm -47.816790 -0.000000 58.415699
RightHand -13.867226 -0.000000 -20.995103
RightHandThumb1 -24.326973 -0.000000 -32.862282
LeftUpLeg -94.469039 -0.165050 -13.166473
LeftLeg 146.490453 -0.000000 -0.000000
LeftFoot -55.352577 24.676198 -18.559564
LeftToeBase 4.923272 -0.000000 -0.000000
RightUpLeg -95.443414 2.521732 18.874514
RightLeg 146.727140 -0.000000 -0.000000
RightFoot -53.075913 -33.225721 26.518882
RightToeBase 7.449892 -0.000000 -0.000000
311
root 21.454839 12.614699 -17.424857 -175.669539 -3.541527 -177.497747
Spine 73.301993 6.680054 2.079681
Head -0.048873 -0.468848 7.813237
LeftShoulder 13.038136 -33.102455 -0.361537
LeftArm -1.702227 -7.747664 -67.197518
LeftForeArm -5.703954 0.000000 36.854422
LeftHand -1.190362 -0.000000 25.190299
LeftHandThumb1 -26.253704 0.000000 33.147579
RightShoulder 6.050532 2.929789 -3.321874
RightArm 41.967899 -8.234283 37.204320
RightForeArm -47.518235 -0.000000 58.371194
RightHand -13.814831 0.000000 -20.900794
RightHandThumb1 -24.326973 -0.000000 -32.862282
LeftUpLeg -94.425921 -0.172261 -13.058323
LeftLeg 146.558540 -0.000000 -0.000000
LeftFoot -55.405893 24.764962 -18.502823
LeftToeBase 4.466891 -0.000000 -0.000000
RightUpLeg -95.400825 2.488583 18.907074
RightLeg 146.756929 -0.000000 -0.000000
RightFoot -52.937674 -33.173575 26.356656
RightToeBase 7.845201 -0.000000 -0.000000
312
root 21.438815 12.595465 -17.406403 -175.817935 -3.457467 -177.392531
Spine 73.346105 6.726202 2.006312
Head -0.096768 -0.269026 7.762371
LeftShoulder 12.968191 -33.033504 -0.543118
LeftArm -2.046449 -8.200779 -67.334154
LeftForeArm -7.510498 0.000000 35.935080
LeftHand -1.032878 -0.000000 25.546183
LeftHandThumb1 -26.253704 0.000000 33.147579
RightShoulder 6.153007 2.991920 -3.266876
RightArm 42.026226 -8.324652 36.889856
RightForeArm -47.447524 -0.000000 58.304562
RightHand -13.877900 0.000000 -20.752214
RightHandThumb1 -24.326973 -0.000000 -32.862282
LeftUpLeg -94.410265 -0.153007 -13.039702
LeftLeg 146.595449 -0.000000 -0.000000
LeftFoot -55.521003 24.810794 -18.627664
LeftToeBase 4.569225 -0.000000 -0.000000
RightUpLeg -95.400571 2.501318 18.869848
RightLeg 146.795932 -0.000000 -0.000000
RightFoot -52.738191 -32.905813 26.275721
RightToeBase 7.441027 -0.000000 -0.000000
313
root 21.423572 12.578270 -17.384955 -175.982082 -3.387756 -177.272285
Spine 73.419668 6.783645 2.022544
Head -0.136377 -0.221169 7.728778
LeftShoulder 12.986562 -32.948037 -0.772925
LeftArm -2.262649 -8.532023 -67.375296
LeftForeArm -9.628339 -0.000000 34.787673
LeftHand -0.860795 -0.000000 25.242160
LeftHandThumb1 -26.253704 0.000000 33.147579
RightShoulder 6.175049 3.002600 -3.251956
RightArm 42.142358 -8.383853 36.587887
RightForeArm -47.271326 -0.000000 58.180784
RightHand -13.948353 -0.000000 -20.737242
RightHandThumb1 -24.326973 -0.000000 -32.862282
LeftUpLeg -94.378437 -0.103487 -13.004272
LeftLeg 146.637335 -0.000000 -0.000000
LeftFoot -55.547360 24.940636 -18.535164
LeftToeBase 4.732423 -0.000000 -0.000000
RightUpLeg -95.366611 2.534900 18.842946
RightLeg 146.817291 -0.000000 -0.000000
RightFoot -52.630017 -32.806277 26.200785
RightToeBase 7.503059 -0.000000 -0.000000
314
root 21.409761 12.562185 -17.361614 -176.129601 -3.309940 -177.140076
Spine 73.472538 6.848834 2.028413
Head -0.169376 -0.220951 7.729385
LeftShoulder 12.981690 -32.816137 -1.026912
LeftArm -2.314941 -8.696348 -67.291284
LeftForeArm -11.780752 0.000000 33.402465
LeftHand -0.663151 -0.000000 24.498613
LeftHandThumb1 -26.253704 0.000000 33.147579
RightShoulder 6.290560 3.048798 -3.264766
RightArm 42.086668 -8.397252 36.373317
RightForeArm -47.166318 -0.000000 58.165412
RightHand -13.859147 -0.000000 -20.612089
RightHandThumb1 -24.326973 -0.000000 -32.862282
LeftUpLeg -94.385323 -0.038349 -12.990592
LeftLeg 146.692804 -0.000000 -0.000000
LeftFoot -55.536356 24.975796 -18.574751
LeftToeBase 4.636736 -0.000000 -0.000000
RightUpLeg -95.335580 2.573667 18.829246
RightLeg 146.819395 -0.000000 -0.000000
RightFoot -52.505211 -32.688863 26.113948
RightToeBase 7.611090 -0.000000 -0.000000
315
root 21.395257 12.548727 -17.335845 -176.277184 -3.236729 -177.034029
Spine 73.540638 6.923238 2.003944
Head -0.213846 -0.183436 7.725439
LeftShoulder 12.987248 -32.630029 -1.313436
LeftArm -2.209875 -8.624232 -67.064020
LeftForeArm -13.988941 -0.000000 31.829715
LeftHand -0.454749 -0.000000 23.390946
LeftHandThumb1 -26.253704 0.000000 33.147579
RightShoulder 6.372621 3.080072 -3.213440
RightArm 42.129089 -8.458455 36.012711
RightForeArm -47.229363 -0.000000 58.032188
RightHand -13.843059 0.000000 -20.756125
RightHandThumb1 -24.326973 -0.000000 -32.862282
LeftUpLeg -94.385104 0.016825 -12.984198
LeftLeg 146.715763 -0.000000 -0.000000
LeftFoot -55.549130 25.023349 -18.601404
LeftToeBase 4.633238 -0.000000 -0.000000
RightUpLeg -95.315887 2.607439 18.773938
RightLeg 146.818407 -0.000000 -0.000000
RightFoot -52.362430 -32.556249 26.010681
RightToeBase 7.682445 -0.000000 -0.000000
316
root 21.383818 12.537865 -17.314895 -176.479077 -3.182813 -176.892306
Spine 73.671391 6.973492 2.009418
Head -0.286744 -0.127347 7.731863
LeftShoulder 12.959780 -32.437791 -1.608964
LeftArm -1.911128 -8.311535 -66.767467
LeftForeArm -16.425010 -0.000000 29.941867
LeftHand -0.037731 -0.000000 22.348516
LeftHandThumb1 -26.253704 0.000000 33.147579
RightShoulder 6.473631 3.038613 -3.178296
RightArm 42.220606 -8.399036 35.662493
RightForeArm -46.839323 0.000000 58.014619
RightHand -13.821126 -0.000000 -20.543810
RightHandThumb1 -24.326973 -0.000000 -32.862282
LeftUpLeg -94.333930 0.088662 -12.947147
LeftLeg 146.759770 -0.000000 -0.000000
LeftFoot -55.518861 24.880704 -18.764052
LeftToeBase 4.364432 -0.000000 -0.000000
RightUpLeg -95.264815 2.602402 18.732299
RightLeg 146.823163 -0.000000 -0.000000
RightFoot -52.162142 -32.203279 26.024775
RightToeBase 7.586918 -0.000000 -0.000000
317
root 21.372787 12.529829 -17.288023 -176.656887 -3.134638 -176.746149
Spine 73.788403 7.005710 1.992877
Head -0.353314 -0.071058 7.727584
LeftShoulder 12.937201 -32.164865 -1.929653
LeftArm -1.493594 -7.802267 -66.343827
LeftForeArm -18.797296 -0.000000 28.053628
LeftHand 0.142555 -0.000000 20.910456
LeftHandThumb1 -26.253704 0.000000 33.147579
RightShoulder 6.612020 2.979162 -3.138930
RightArm 42.322119 -8.343283 35.216242
RightForeArm -46.584531 -0.000000 57.978533
RightHand -13.829813 -0.000000 -20.457264
RightHandThumb1 -24.326973 -0.000000 -32.862282
LeftUpLeg -94.301448 0.167243 -12.878291
LeftLeg 146.757419 -0.000000 -0.000000
LeftFoot -55.528917 25.102933 -18.597750
LeftToeBase 4.628253 -0.000000 -0.000000
RightUpLeg -95.262473 2.594295 18.680241
RightLeg 146.827629 -0.000000 -0.000000
RightFoot -51.898081 -31.798499 26.026816
RightToeBase 7.513200 -0.000000 -0.000000
